<?xml version="1.0" encoding="utf-8"?>
<!DOCTYPE svg PUBLIC "-//W3C//DTD SVG 1.1//EN" "http://www.w3.org/Graphics/SVG/1.1/DTD/svg11.dtd">
<svg version="1.1" id="Layer_1" xmlns="http://www.w3.org/2000/svg" xmlns:xlink="http://www.w3.org/1999/xlink" x="0px" y="0px"
width="1155px" height="1155px" viewBox="0 0 1155 1155" enable-background="new 0 0 1155 1155" xml:space="preserve">
<rect x="0" y="0" width="1155" height="1155" fill="rgb(255,255,255)" /><g transform="translate(70,70)"><g><defs>
    <linearGradient gradientTransform="rotate(90)" id="grad">
    <stop offset="5%" stop-color="rgb(67,37,122)" />
    <stop offset="95%" stop-color="rgb(27,99,141)" />
    </linearGradient>
<mask id="gmask"><g>
<g transform="translate(280,0) scale(0.35,0.35)"><g transform="" style="fill: rgb(255, 255, 255);">
<polygon points="0,50 50,100 100,50 50,0"/>
</g></g><g transform="translate(350,0) scale(0.35,0.35)"><g transform="" style="fill: rgb(255, 255, 255);">
<polygon points="0,50 50,100 100,50 50,0"/>
</g></g><g transform="translate(385,0) scale(0.35,0.35)"><g transform="" style="fill: rgb(255, 255, 255);">
<polygon points="0,50 50,100 100,50 50,0"/>
</g></g><g transform="translate(420,0) scale(0.35,0.35)"><g transform="" style="fill: rgb(255, 255, 255);">
<polygon points="0,50 50,100 100,50 50,0"/>
</g></g><g transform="translate(455,0) scale(0.35,0.35)"><g transform="" style="fill: rgb(255, 255, 255);">
<polygon points="0,50 50,100 100,50 50,0"/>
</g></g><g transform="translate(490,0) scale(0.35,0.35)"><g transform="" style="fill: rgb(255, 255, 255);">
<polygon points="0,50 50,100 100,50 50,0"/>
</g></g><g transform="translate(525,0) scale(0.35,0.35)"><g transform="" style="fill: rgb(255, 255, 255);">
<polygon points="0,50 50,100 100,50 50,0"/>
</g></g><g transform="translate(595,0) scale(0.35,0.35)"><g transform="" style="fill: rgb(255, 255, 255);">
<polygon points="0,50 50,100 100,50 50,0"/>
</g></g><g transform="translate(630,0) scale(0.35,0.35)"><g transform="" style="fill: rgb(255, 255, 255);">
<polygon points="0,50 50,100 100,50 50,0"/>
</g></g><g transform="translate(350,35) scale(0.35,0.35)"><g transform="" style="fill: rgb(255, 255, 255);">
<polygon points="0,50 50,100 100,50 50,0"/>
</g></g><g transform="translate(385,35) scale(0.35,0.35)"><g transform="" style="fill: rgb(255, 255, 255);">
<polygon points="0,50 50,100 100,50 50,0"/>
</g></g><g transform="translate(525,35) scale(0.35,0.35)"><g transform="" style="fill: rgb(255, 255, 255);">
<polygon points="0,50 50,100 100,50 50,0"/>
</g></g><g transform="translate(595,35) scale(0.35,0.35)"><g transform="" style="fill: rgb(255, 255, 255);">
<polygon points="0,50 50,100 100,50 50,0"/>
</g></g><g transform="translate(700,35) scale(0.35,0.35)"><g transform="" style="fill: rgb(255, 255, 255);">
<polygon points="0,50 50,100 100,50 50,0"/>
</g></g><g transform="translate(280,70) scale(0.35,0.35)"><g transform="" style="fill: rgb(255, 255, 255);">
<polygon points="0,50 50,100 100,50 50,0"/>
</g></g><g transform="translate(350,70) scale(0.35,0.35)"><g transform="" style="fill: rgb(255, 255, 255);">
<polygon points="0,50 50,100 100,50 50,0"/>
</g></g><g transform="translate(420,70) scale(0.35,0.35)"><g transform="" style="fill: rgb(255, 255, 255);">
<polygon points="0,50 50,100 100,50 50,0"/>
</g></g><g transform="translate(455,70) scale(0.35,0.35)"><g transform="" style="fill: rgb(255, 255, 255);">
<polygon points="0,50 50,100 100,50 50,0"/>
</g></g><g transform="translate(595,70) scale(0.35,0.35)"><g transform="" style="fill: rgb(255, 255, 255);">
<polygon points="0,50 50,100 100,50 50,0"/>
</g></g><g transform="translate(630,70) scale(0.35,0.35)"><g transform="" style="fill: rgb(255, 255, 255);">
<polygon points="0,50 50,100 100,50 50,0"/>
</g></g><g transform="translate(665,70) scale(0.35,0.35)"><g transform="" style="fill: rgb(255, 255, 255);">
<polygon points="0,50 50,100 100,50 50,0"/>
</g></g><g transform="translate(350,105) scale(0.35,0.35)"><g transform="" style="fill: rgb(255, 255, 255);">
<polygon points="0,50 50,100 100,50 50,0"/>
</g></g><g transform="translate(385,105) scale(0.35,0.35)"><g transform="" style="fill: rgb(255, 255, 255);">
<polygon points="0,50 50,100 100,50 50,0"/>
</g></g><g transform="translate(525,105) scale(0.35,0.35)"><g transform="" style="fill: rgb(255, 255, 255);">
<polygon points="0,50 50,100 100,50 50,0"/>
</g></g><g transform="translate(560,105) scale(0.35,0.35)"><g transform="" style="fill: rgb(255, 255, 255);">
<polygon points="0,50 50,100 100,50 50,0"/>
</g></g><g transform="translate(595,105) scale(0.35,0.35)"><g transform="" style="fill: rgb(255, 255, 255);">
<polygon points="0,50 50,100 100,50 50,0"/>
</g></g><g transform="translate(700,105) scale(0.35,0.35)"><g transform="" style="fill: rgb(255, 255, 255);">
<polygon points="0,50 50,100 100,50 50,0"/>
</g></g><g transform="translate(350,140) scale(0.35,0.35)"><g transform="" style="fill: rgb(255, 255, 255);">
<polygon points="0,50 50,100 100,50 50,0"/>
</g></g><g transform="translate(385,140) scale(0.35,0.35)"><g transform="" style="fill: rgb(255, 255, 255);">
<polygon points="0,50 50,100 100,50 50,0"/>
</g></g><g transform="translate(420,140) scale(0.35,0.35)"><g transform="" style="fill: rgb(255, 255, 255);">
<polygon points="0,50 50,100 100,50 50,0"/>
</g></g><g transform="translate(525,140) scale(0.35,0.35)"><g transform="" style="fill: rgb(255, 255, 255);">
<polygon points="0,50 50,100 100,50 50,0"/>
</g></g><g transform="translate(560,140) scale(0.35,0.35)"><g transform="" style="fill: rgb(255, 255, 255);">
<polygon points="0,50 50,100 100,50 50,0"/>
</g></g><g transform="translate(630,140) scale(0.35,0.35)"><g transform="" style="fill: rgb(255, 255, 255);">
<polygon points="0,50 50,100 100,50 50,0"/>
</g></g><g transform="translate(280,175) scale(0.35,0.35)"><g transform="" style="fill: rgb(255, 255, 255);">
<polygon points="0,50 50,100 100,50 50,0"/>
</g></g><g transform="translate(315,175) scale(0.35,0.35)"><g transform="" style="fill: rgb(255, 255, 255);">
<polygon points="0,50 50,100 100,50 50,0"/>
</g></g><g transform="translate(350,175) scale(0.35,0.35)"><g transform="" style="fill: rgb(255, 255, 255);">
<polygon points="0,50 50,100 100,50 50,0"/>
</g></g><g transform="translate(455,175) scale(0.35,0.35)"><g transform="" style="fill: rgb(255, 255, 255);">
<polygon points="0,50 50,100 100,50 50,0"/>
</g></g><g transform="translate(490,175) scale(0.35,0.35)"><g transform="" style="fill: rgb(255, 255, 255);">
<polygon points="0,50 50,100 100,50 50,0"/>
</g></g><g transform="translate(560,175) scale(0.35,0.35)"><g transform="" style="fill: rgb(255, 255, 255);">
<polygon points="0,50 50,100 100,50 50,0"/>
</g></g><g transform="translate(595,175) scale(0.35,0.35)"><g transform="" style="fill: rgb(255, 255, 255);">
<polygon points="0,50 50,100 100,50 50,0"/>
</g></g><g transform="translate(630,175) scale(0.35,0.35)"><g transform="" style="fill: rgb(255, 255, 255);">
<polygon points="0,50 50,100 100,50 50,0"/>
</g></g><g transform="translate(280,210) scale(0.35,0.35)"><g transform="" style="fill: rgb(255, 255, 255);">
<polygon points="0,50 50,100 100,50 50,0"/>
</g></g><g transform="translate(350,210) scale(0.35,0.35)"><g transform="" style="fill: rgb(255, 255, 255);">
<polygon points="0,50 50,100 100,50 50,0"/>
</g></g><g transform="translate(420,210) scale(0.35,0.35)"><g transform="" style="fill: rgb(255, 255, 255);">
<polygon points="0,50 50,100 100,50 50,0"/>
</g></g><g transform="translate(490,210) scale(0.35,0.35)"><g transform="" style="fill: rgb(255, 255, 255);">
<polygon points="0,50 50,100 100,50 50,0"/>
</g></g><g transform="translate(560,210) scale(0.35,0.35)"><g transform="" style="fill: rgb(255, 255, 255);">
<polygon points="0,50 50,100 100,50 50,0"/>
</g></g><g transform="translate(630,210) scale(0.35,0.35)"><g transform="" style="fill: rgb(255, 255, 255);">
<polygon points="0,50 50,100 100,50 50,0"/>
</g></g><g transform="translate(700,210) scale(0.35,0.35)"><g transform="" style="fill: rgb(255, 255, 255);">
<polygon points="0,50 50,100 100,50 50,0"/>
</g></g><g transform="translate(350,245) scale(0.35,0.35)"><g transform="" style="fill: rgb(255, 255, 255);">
<polygon points="0,50 50,100 100,50 50,0"/>
</g></g><g transform="translate(385,245) scale(0.35,0.35)"><g transform="" style="fill: rgb(255, 255, 255);">
<polygon points="0,50 50,100 100,50 50,0"/>
</g></g><g transform="translate(455,245) scale(0.35,0.35)"><g transform="" style="fill: rgb(255, 255, 255);">
<polygon points="0,50 50,100 100,50 50,0"/>
</g></g><g transform="translate(0,280) scale(0.35,0.35)"><g transform="" style="fill: rgb(255, 255, 255);">
<polygon points="0,50 50,100 100,50 50,0"/>
</g></g><g transform="translate(70,280) scale(0.35,0.35)"><g transform="" style="fill: rgb(255, 255, 255);">
<polygon points="0,50 50,100 100,50 50,0"/>
</g></g><g transform="translate(210,280) scale(0.35,0.35)"><g transform="" style="fill: rgb(255, 255, 255);">
<polygon points="0,50 50,100 100,50 50,0"/>
</g></g><g transform="translate(245,280) scale(0.35,0.35)"><g transform="" style="fill: rgb(255, 255, 255);">
<polygon points="0,50 50,100 100,50 50,0"/>
</g></g><g transform="translate(315,280) scale(0.35,0.35)"><g transform="" style="fill: rgb(255, 255, 255);">
<polygon points="0,50 50,100 100,50 50,0"/>
</g></g><g transform="translate(350,280) scale(0.35,0.35)"><g transform="" style="fill: rgb(255, 255, 255);">
<polygon points="0,50 50,100 100,50 50,0"/>
</g></g><g transform="translate(385,280) scale(0.35,0.35)"><g transform="" style="fill: rgb(255, 255, 255);">
<polygon points="0,50 50,100 100,50 50,0"/>
</g></g><g transform="translate(420,280) scale(0.35,0.35)"><g transform="" style="fill: rgb(255, 255, 255);">
<polygon points="0,50 50,100 100,50 50,0"/>
</g></g><g transform="translate(455,280) scale(0.35,0.35)"><g transform="" style="fill: rgb(255, 255, 255);">
<polygon points="0,50 50,100 100,50 50,0"/>
</g></g><g transform="translate(525,280) scale(0.35,0.35)"><g transform="" style="fill: rgb(255, 255, 255);">
<polygon points="0,50 50,100 100,50 50,0"/>
</g></g><g transform="translate(560,280) scale(0.35,0.35)"><g transform="" style="fill: rgb(255, 255, 255);">
<polygon points="0,50 50,100 100,50 50,0"/>
</g></g><g transform="translate(700,280) scale(0.35,0.35)"><g transform="" style="fill: rgb(255, 255, 255);">
<polygon points="0,50 50,100 100,50 50,0"/>
</g></g><g transform="translate(805,280) scale(0.35,0.35)"><g transform="" style="fill: rgb(255, 255, 255);">
<polygon points="0,50 50,100 100,50 50,0"/>
</g></g><g transform="translate(910,280) scale(0.35,0.35)"><g transform="" style="fill: rgb(255, 255, 255);">
<polygon points="0,50 50,100 100,50 50,0"/>
</g></g><g transform="translate(980,280) scale(0.35,0.35)"><g transform="" style="fill: rgb(255, 255, 255);">
<polygon points="0,50 50,100 100,50 50,0"/>
</g></g><g transform="translate(0,315) scale(0.35,0.35)"><g transform="" style="fill: rgb(255, 255, 255);">
<polygon points="0,50 50,100 100,50 50,0"/>
</g></g><g transform="translate(70,315) scale(0.35,0.35)"><g transform="" style="fill: rgb(255, 255, 255);">
<polygon points="0,50 50,100 100,50 50,0"/>
</g></g><g transform="translate(105,315) scale(0.35,0.35)"><g transform="" style="fill: rgb(255, 255, 255);">
<polygon points="0,50 50,100 100,50 50,0"/>
</g></g><g transform="translate(140,315) scale(0.35,0.35)"><g transform="" style="fill: rgb(255, 255, 255);">
<polygon points="0,50 50,100 100,50 50,0"/>
</g></g><g transform="translate(175,315) scale(0.35,0.35)"><g transform="" style="fill: rgb(255, 255, 255);">
<polygon points="0,50 50,100 100,50 50,0"/>
</g></g><g transform="translate(245,315) scale(0.35,0.35)"><g transform="" style="fill: rgb(255, 255, 255);">
<polygon points="0,50 50,100 100,50 50,0"/>
</g></g><g transform="translate(385,315) scale(0.35,0.35)"><g transform="" style="fill: rgb(255, 255, 255);">
<polygon points="0,50 50,100 100,50 50,0"/>
</g></g><g transform="translate(420,315) scale(0.35,0.35)"><g transform="" style="fill: rgb(255, 255, 255);">
<polygon points="0,50 50,100 100,50 50,0"/>
</g></g><g transform="translate(560,315) scale(0.35,0.35)"><g transform="" style="fill: rgb(255, 255, 255);">
<polygon points="0,50 50,100 100,50 50,0"/>
</g></g><g transform="translate(595,315) scale(0.35,0.35)"><g transform="" style="fill: rgb(255, 255, 255);">
<polygon points="0,50 50,100 100,50 50,0"/>
</g></g><g transform="translate(665,315) scale(0.35,0.35)"><g transform="" style="fill: rgb(255, 255, 255);">
<polygon points="0,50 50,100 100,50 50,0"/>
</g></g><g transform="translate(700,315) scale(0.35,0.35)"><g transform="" style="fill: rgb(255, 255, 255);">
<polygon points="0,50 50,100 100,50 50,0"/>
</g></g><g transform="translate(770,315) scale(0.35,0.35)"><g transform="" style="fill: rgb(255, 255, 255);">
<polygon points="0,50 50,100 100,50 50,0"/>
</g></g><g transform="translate(805,315) scale(0.35,0.35)"><g transform="" style="fill: rgb(255, 255, 255);">
<polygon points="0,50 50,100 100,50 50,0"/>
</g></g><g transform="translate(945,315) scale(0.35,0.35)"><g transform="" style="fill: rgb(255, 255, 255);">
<polygon points="0,50 50,100 100,50 50,0"/>
</g></g><g transform="translate(980,315) scale(0.35,0.35)"><g transform="" style="fill: rgb(255, 255, 255);">
<polygon points="0,50 50,100 100,50 50,0"/>
</g></g><g transform="translate(140,350) scale(0.35,0.35)"><g transform="" style="fill: rgb(255, 255, 255);">
<polygon points="0,50 50,100 100,50 50,0"/>
</g></g><g transform="translate(175,350) scale(0.35,0.35)"><g transform="" style="fill: rgb(255, 255, 255);">
<polygon points="0,50 50,100 100,50 50,0"/>
</g></g><g transform="translate(210,350) scale(0.35,0.35)"><g transform="" style="fill: rgb(255, 255, 255);">
<polygon points="0,50 50,100 100,50 50,0"/>
</g></g><g transform="translate(280,350) scale(0.35,0.35)"><g transform="" style="fill: rgb(255, 255, 255);">
<polygon points="0,50 50,100 100,50 50,0"/>
</g></g><g transform="translate(350,350) scale(0.35,0.35)"><g transform="" style="fill: rgb(255, 255, 255);">
<polygon points="0,50 50,100 100,50 50,0"/>
</g></g><g transform="translate(385,350) scale(0.35,0.35)"><g transform="" style="fill: rgb(255, 255, 255);">
<polygon points="0,50 50,100 100,50 50,0"/>
</g></g><g transform="translate(455,350) scale(0.35,0.35)"><g transform="" style="fill: rgb(255, 255, 255);">
<polygon points="0,50 50,100 100,50 50,0"/>
</g></g><g transform="translate(490,350) scale(0.35,0.35)"><g transform="" style="fill: rgb(255, 255, 255);">
<polygon points="0,50 50,100 100,50 50,0"/>
</g></g><g transform="translate(560,350) scale(0.35,0.35)"><g transform="" style="fill: rgb(255, 255, 255);">
<polygon points="0,50 50,100 100,50 50,0"/>
</g></g><g transform="translate(595,350) scale(0.35,0.35)"><g transform="" style="fill: rgb(255, 255, 255);">
<polygon points="0,50 50,100 100,50 50,0"/>
</g></g><g transform="translate(630,350) scale(0.35,0.35)"><g transform="" style="fill: rgb(255, 255, 255);">
<polygon points="0,50 50,100 100,50 50,0"/>
</g></g><g transform="translate(665,350) scale(0.35,0.35)"><g transform="" style="fill: rgb(255, 255, 255);">
<polygon points="0,50 50,100 100,50 50,0"/>
</g></g><g transform="translate(700,350) scale(0.35,0.35)"><g transform="" style="fill: rgb(255, 255, 255);">
<polygon points="0,50 50,100 100,50 50,0"/>
</g></g><g transform="translate(840,350) scale(0.35,0.35)"><g transform="" style="fill: rgb(255, 255, 255);">
<polygon points="0,50 50,100 100,50 50,0"/>
</g></g><g transform="translate(875,350) scale(0.35,0.35)"><g transform="" style="fill: rgb(255, 255, 255);">
<polygon points="0,50 50,100 100,50 50,0"/>
</g></g><g transform="translate(910,350) scale(0.35,0.35)"><g transform="" style="fill: rgb(255, 255, 255);">
<polygon points="0,50 50,100 100,50 50,0"/>
</g></g><g transform="translate(980,350) scale(0.35,0.35)"><g transform="" style="fill: rgb(255, 255, 255);">
<polygon points="0,50 50,100 100,50 50,0"/>
</g></g><g transform="translate(0,385) scale(0.35,0.35)"><g transform="" style="fill: rgb(255, 255, 255);">
<polygon points="0,50 50,100 100,50 50,0"/>
</g></g><g transform="translate(35,385) scale(0.35,0.35)"><g transform="" style="fill: rgb(255, 255, 255);">
<polygon points="0,50 50,100 100,50 50,0"/>
</g></g><g transform="translate(245,385) scale(0.35,0.35)"><g transform="" style="fill: rgb(255, 255, 255);">
<polygon points="0,50 50,100 100,50 50,0"/>
</g></g><g transform="translate(315,385) scale(0.35,0.35)"><g transform="" style="fill: rgb(255, 255, 255);">
<polygon points="0,50 50,100 100,50 50,0"/>
</g></g><g transform="translate(490,385) scale(0.35,0.35)"><g transform="" style="fill: rgb(255, 255, 255);">
<polygon points="0,50 50,100 100,50 50,0"/>
</g></g><g transform="translate(525,385) scale(0.35,0.35)"><g transform="" style="fill: rgb(255, 255, 255);">
<polygon points="0,50 50,100 100,50 50,0"/>
</g></g><g transform="translate(560,385) scale(0.35,0.35)"><g transform="" style="fill: rgb(255, 255, 255);">
<polygon points="0,50 50,100 100,50 50,0"/>
</g></g><g transform="translate(630,385) scale(0.35,0.35)"><g transform="" style="fill: rgb(255, 255, 255);">
<polygon points="0,50 50,100 100,50 50,0"/>
</g></g><g transform="translate(700,385) scale(0.35,0.35)"><g transform="" style="fill: rgb(255, 255, 255);">
<polygon points="0,50 50,100 100,50 50,0"/>
</g></g><g transform="translate(735,385) scale(0.35,0.35)"><g transform="" style="fill: rgb(255, 255, 255);">
<polygon points="0,50 50,100 100,50 50,0"/>
</g></g><g transform="translate(875,385) scale(0.35,0.35)"><g transform="" style="fill: rgb(255, 255, 255);">
<polygon points="0,50 50,100 100,50 50,0"/>
</g></g><g transform="translate(0,420) scale(0.35,0.35)"><g transform="" style="fill: rgb(255, 255, 255);">
<polygon points="0,50 50,100 100,50 50,0"/>
</g></g><g transform="translate(70,420) scale(0.35,0.35)"><g transform="" style="fill: rgb(255, 255, 255);">
<polygon points="0,50 50,100 100,50 50,0"/>
</g></g><g transform="translate(175,420) scale(0.35,0.35)"><g transform="" style="fill: rgb(255, 255, 255);">
<polygon points="0,50 50,100 100,50 50,0"/>
</g></g><g transform="translate(210,420) scale(0.35,0.35)"><g transform="" style="fill: rgb(255, 255, 255);">
<polygon points="0,50 50,100 100,50 50,0"/>
</g></g><g transform="translate(245,420) scale(0.35,0.35)"><g transform="" style="fill: rgb(255, 255, 255);">
<polygon points="0,50 50,100 100,50 50,0"/>
</g></g><g transform="translate(385,420) scale(0.35,0.35)"><g transform="" style="fill: rgb(255, 255, 255);">
<polygon points="0,50 50,100 100,50 50,0"/>
</g></g><g transform="translate(455,420) scale(0.35,0.35)"><g transform="" style="fill: rgb(255, 255, 255);">
<polygon points="0,50 50,100 100,50 50,0"/>
</g></g><g transform="translate(490,420) scale(0.35,0.35)"><g transform="" style="fill: rgb(255, 255, 255);">
<polygon points="0,50 50,100 100,50 50,0"/>
</g></g><g transform="translate(665,420) scale(0.35,0.35)"><g transform="" style="fill: rgb(255, 255, 255);">
<polygon points="0,50 50,100 100,50 50,0"/>
</g></g><g transform="translate(770,420) scale(0.35,0.35)"><g transform="" style="fill: rgb(255, 255, 255);">
<polygon points="0,50 50,100 100,50 50,0"/>
</g></g><g transform="translate(980,420) scale(0.35,0.35)"><g transform="" style="fill: rgb(255, 255, 255);">
<polygon points="0,50 50,100 100,50 50,0"/>
</g></g><g transform="translate(0,455) scale(0.35,0.35)"><g transform="" style="fill: rgb(255, 255, 255);">
<polygon points="0,50 50,100 100,50 50,0"/>
</g></g><g transform="translate(140,455) scale(0.35,0.35)"><g transform="" style="fill: rgb(255, 255, 255);">
<polygon points="0,50 50,100 100,50 50,0"/>
</g></g><g transform="translate(245,455) scale(0.35,0.35)"><g transform="" style="fill: rgb(255, 255, 255);">
<polygon points="0,50 50,100 100,50 50,0"/>
</g></g><g transform="translate(315,455) scale(0.35,0.35)"><g transform="" style="fill: rgb(255, 255, 255);">
<polygon points="0,50 50,100 100,50 50,0"/>
</g></g><g transform="translate(350,455) scale(0.35,0.35)"><g transform="" style="fill: rgb(255, 255, 255);">
<polygon points="0,50 50,100 100,50 50,0"/>
</g></g><g transform="translate(455,455) scale(0.35,0.35)"><g transform="" style="fill: rgb(255, 255, 255);">
<polygon points="0,50 50,100 100,50 50,0"/>
</g></g><g transform="translate(490,455) scale(0.35,0.35)"><g transform="" style="fill: rgb(255, 255, 255);">
<polygon points="0,50 50,100 100,50 50,0"/>
</g></g><g transform="translate(595,455) scale(0.35,0.35)"><g transform="" style="fill: rgb(255, 255, 255);">
<polygon points="0,50 50,100 100,50 50,0"/>
</g></g><g transform="translate(665,455) scale(0.35,0.35)"><g transform="" style="fill: rgb(255, 255, 255);">
<polygon points="0,50 50,100 100,50 50,0"/>
</g></g><g transform="translate(700,455) scale(0.35,0.35)"><g transform="" style="fill: rgb(255, 255, 255);">
<polygon points="0,50 50,100 100,50 50,0"/>
</g></g><g transform="translate(770,455) scale(0.35,0.35)"><g transform="" style="fill: rgb(255, 255, 255);">
<polygon points="0,50 50,100 100,50 50,0"/>
</g></g><g transform="translate(945,455) scale(0.35,0.35)"><g transform="" style="fill: rgb(255, 255, 255);">
<polygon points="0,50 50,100 100,50 50,0"/>
</g></g><g transform="translate(980,455) scale(0.35,0.35)"><g transform="" style="fill: rgb(255, 255, 255);">
<polygon points="0,50 50,100 100,50 50,0"/>
</g></g><g transform="translate(0,490) scale(0.35,0.35)"><g transform="" style="fill: rgb(255, 255, 255);">
<polygon points="0,50 50,100 100,50 50,0"/>
</g></g><g transform="translate(70,490) scale(0.35,0.35)"><g transform="" style="fill: rgb(255, 255, 255);">
<polygon points="0,50 50,100 100,50 50,0"/>
</g></g><g transform="translate(175,490) scale(0.35,0.35)"><g transform="" style="fill: rgb(255, 255, 255);">
<polygon points="0,50 50,100 100,50 50,0"/>
</g></g><g transform="translate(210,490) scale(0.35,0.35)"><g transform="" style="fill: rgb(255, 255, 255);">
<polygon points="0,50 50,100 100,50 50,0"/>
</g></g><g transform="translate(245,490) scale(0.35,0.35)"><g transform="" style="fill: rgb(255, 255, 255);">
<polygon points="0,50 50,100 100,50 50,0"/>
</g></g><g transform="translate(280,490) scale(0.35,0.35)"><g transform="" style="fill: rgb(255, 255, 255);">
<polygon points="0,50 50,100 100,50 50,0"/>
</g></g><g transform="translate(315,490) scale(0.35,0.35)"><g transform="" style="fill: rgb(255, 255, 255);">
<polygon points="0,50 50,100 100,50 50,0"/>
</g></g><g transform="translate(525,490) scale(0.35,0.35)"><g transform="" style="fill: rgb(255, 255, 255);">
<polygon points="0,50 50,100 100,50 50,0"/>
</g></g><g transform="translate(665,490) scale(0.35,0.35)"><g transform="" style="fill: rgb(255, 255, 255);">
<polygon points="0,50 50,100 100,50 50,0"/>
</g></g><g transform="translate(735,490) scale(0.35,0.35)"><g transform="" style="fill: rgb(255, 255, 255);">
<polygon points="0,50 50,100 100,50 50,0"/>
</g></g><g transform="translate(805,490) scale(0.35,0.35)"><g transform="" style="fill: rgb(255, 255, 255);">
<polygon points="0,50 50,100 100,50 50,0"/>
</g></g><g transform="translate(840,490) scale(0.35,0.35)"><g transform="" style="fill: rgb(255, 255, 255);">
<polygon points="0,50 50,100 100,50 50,0"/>
</g></g><g transform="translate(980,490) scale(0.35,0.35)"><g transform="" style="fill: rgb(255, 255, 255);">
<polygon points="0,50 50,100 100,50 50,0"/>
</g></g><g transform="translate(280,525) scale(0.35,0.35)"><g transform="" style="fill: rgb(255, 255, 255);">
<polygon points="0,50 50,100 100,50 50,0"/>
</g></g><g transform="translate(350,525) scale(0.35,0.35)"><g transform="" style="fill: rgb(255, 255, 255);">
<polygon points="0,50 50,100 100,50 50,0"/>
</g></g><g transform="translate(385,525) scale(0.35,0.35)"><g transform="" style="fill: rgb(255, 255, 255);">
<polygon points="0,50 50,100 100,50 50,0"/>
</g></g><g transform="translate(455,525) scale(0.35,0.35)"><g transform="" style="fill: rgb(255, 255, 255);">
<polygon points="0,50 50,100 100,50 50,0"/>
</g></g><g transform="translate(630,525) scale(0.35,0.35)"><g transform="" style="fill: rgb(255, 255, 255);">
<polygon points="0,50 50,100 100,50 50,0"/>
</g></g><g transform="translate(735,525) scale(0.35,0.35)"><g transform="" style="fill: rgb(255, 255, 255);">
<polygon points="0,50 50,100 100,50 50,0"/>
</g></g><g transform="translate(840,525) scale(0.35,0.35)"><g transform="" style="fill: rgb(255, 255, 255);">
<polygon points="0,50 50,100 100,50 50,0"/>
</g></g><g transform="translate(0,560) scale(0.35,0.35)"><g transform="" style="fill: rgb(255, 255, 255);">
<polygon points="0,50 50,100 100,50 50,0"/>
</g></g><g transform="translate(35,560) scale(0.35,0.35)"><g transform="" style="fill: rgb(255, 255, 255);">
<polygon points="0,50 50,100 100,50 50,0"/>
</g></g><g transform="translate(175,560) scale(0.35,0.35)"><g transform="" style="fill: rgb(255, 255, 255);">
<polygon points="0,50 50,100 100,50 50,0"/>
</g></g><g transform="translate(210,560) scale(0.35,0.35)"><g transform="" style="fill: rgb(255, 255, 255);">
<polygon points="0,50 50,100 100,50 50,0"/>
</g></g><g transform="translate(245,560) scale(0.35,0.35)"><g transform="" style="fill: rgb(255, 255, 255);">
<polygon points="0,50 50,100 100,50 50,0"/>
</g></g><g transform="translate(280,560) scale(0.35,0.35)"><g transform="" style="fill: rgb(255, 255, 255);">
<polygon points="0,50 50,100 100,50 50,0"/>
</g></g><g transform="translate(315,560) scale(0.35,0.35)"><g transform="" style="fill: rgb(255, 255, 255);">
<polygon points="0,50 50,100 100,50 50,0"/>
</g></g><g transform="translate(350,560) scale(0.35,0.35)"><g transform="" style="fill: rgb(255, 255, 255);">
<polygon points="0,50 50,100 100,50 50,0"/>
</g></g><g transform="translate(385,560) scale(0.35,0.35)"><g transform="" style="fill: rgb(255, 255, 255);">
<polygon points="0,50 50,100 100,50 50,0"/>
</g></g><g transform="translate(420,560) scale(0.35,0.35)"><g transform="" style="fill: rgb(255, 255, 255);">
<polygon points="0,50 50,100 100,50 50,0"/>
</g></g><g transform="translate(455,560) scale(0.35,0.35)"><g transform="" style="fill: rgb(255, 255, 255);">
<polygon points="0,50 50,100 100,50 50,0"/>
</g></g><g transform="translate(525,560) scale(0.35,0.35)"><g transform="" style="fill: rgb(255, 255, 255);">
<polygon points="0,50 50,100 100,50 50,0"/>
</g></g><g transform="translate(560,560) scale(0.35,0.35)"><g transform="" style="fill: rgb(255, 255, 255);">
<polygon points="0,50 50,100 100,50 50,0"/>
</g></g><g transform="translate(630,560) scale(0.35,0.35)"><g transform="" style="fill: rgb(255, 255, 255);">
<polygon points="0,50 50,100 100,50 50,0"/>
</g></g><g transform="translate(700,560) scale(0.35,0.35)"><g transform="" style="fill: rgb(255, 255, 255);">
<polygon points="0,50 50,100 100,50 50,0"/>
</g></g><g transform="translate(770,560) scale(0.35,0.35)"><g transform="" style="fill: rgb(255, 255, 255);">
<polygon points="0,50 50,100 100,50 50,0"/>
</g></g><g transform="translate(805,560) scale(0.35,0.35)"><g transform="" style="fill: rgb(255, 255, 255);">
<polygon points="0,50 50,100 100,50 50,0"/>
</g></g><g transform="translate(980,560) scale(0.35,0.35)"><g transform="" style="fill: rgb(255, 255, 255);">
<polygon points="0,50 50,100 100,50 50,0"/>
</g></g><g transform="translate(35,595) scale(0.35,0.35)"><g transform="" style="fill: rgb(255, 255, 255);">
<polygon points="0,50 50,100 100,50 50,0"/>
</g></g><g transform="translate(70,595) scale(0.35,0.35)"><g transform="" style="fill: rgb(255, 255, 255);">
<polygon points="0,50 50,100 100,50 50,0"/>
</g></g><g transform="translate(245,595) scale(0.35,0.35)"><g transform="" style="fill: rgb(255, 255, 255);">
<polygon points="0,50 50,100 100,50 50,0"/>
</g></g><g transform="translate(280,595) scale(0.35,0.35)"><g transform="" style="fill: rgb(255, 255, 255);">
<polygon points="0,50 50,100 100,50 50,0"/>
</g></g><g transform="translate(350,595) scale(0.35,0.35)"><g transform="" style="fill: rgb(255, 255, 255);">
<polygon points="0,50 50,100 100,50 50,0"/>
</g></g><g transform="translate(560,595) scale(0.35,0.35)"><g transform="" style="fill: rgb(255, 255, 255);">
<polygon points="0,50 50,100 100,50 50,0"/>
</g></g><g transform="translate(595,595) scale(0.35,0.35)"><g transform="" style="fill: rgb(255, 255, 255);">
<polygon points="0,50 50,100 100,50 50,0"/>
</g></g><g transform="translate(665,595) scale(0.35,0.35)"><g transform="" style="fill: rgb(255, 255, 255);">
<polygon points="0,50 50,100 100,50 50,0"/>
</g></g><g transform="translate(700,595) scale(0.35,0.35)"><g transform="" style="fill: rgb(255, 255, 255);">
<polygon points="0,50 50,100 100,50 50,0"/>
</g></g><g transform="translate(735,595) scale(0.35,0.35)"><g transform="" style="fill: rgb(255, 255, 255);">
<polygon points="0,50 50,100 100,50 50,0"/>
</g></g><g transform="translate(770,595) scale(0.35,0.35)"><g transform="" style="fill: rgb(255, 255, 255);">
<polygon points="0,50 50,100 100,50 50,0"/>
</g></g><g transform="translate(805,595) scale(0.35,0.35)"><g transform="" style="fill: rgb(255, 255, 255);">
<polygon points="0,50 50,100 100,50 50,0"/>
</g></g><g transform="translate(910,595) scale(0.35,0.35)"><g transform="" style="fill: rgb(255, 255, 255);">
<polygon points="0,50 50,100 100,50 50,0"/>
</g></g><g transform="translate(945,595) scale(0.35,0.35)"><g transform="" style="fill: rgb(255, 255, 255);">
<polygon points="0,50 50,100 100,50 50,0"/>
</g></g><g transform="translate(980,595) scale(0.35,0.35)"><g transform="" style="fill: rgb(255, 255, 255);">
<polygon points="0,50 50,100 100,50 50,0"/>
</g></g><g transform="translate(0,630) scale(0.35,0.35)"><g transform="" style="fill: rgb(255, 255, 255);">
<polygon points="0,50 50,100 100,50 50,0"/>
</g></g><g transform="translate(35,630) scale(0.35,0.35)"><g transform="" style="fill: rgb(255, 255, 255);">
<polygon points="0,50 50,100 100,50 50,0"/>
</g></g><g transform="translate(70,630) scale(0.35,0.35)"><g transform="" style="fill: rgb(255, 255, 255);">
<polygon points="0,50 50,100 100,50 50,0"/>
</g></g><g transform="translate(105,630) scale(0.35,0.35)"><g transform="" style="fill: rgb(255, 255, 255);">
<polygon points="0,50 50,100 100,50 50,0"/>
</g></g><g transform="translate(140,630) scale(0.35,0.35)"><g transform="" style="fill: rgb(255, 255, 255);">
<polygon points="0,50 50,100 100,50 50,0"/>
</g></g><g transform="translate(210,630) scale(0.35,0.35)"><g transform="" style="fill: rgb(255, 255, 255);">
<polygon points="0,50 50,100 100,50 50,0"/>
</g></g><g transform="translate(245,630) scale(0.35,0.35)"><g transform="" style="fill: rgb(255, 255, 255);">
<polygon points="0,50 50,100 100,50 50,0"/>
</g></g><g transform="translate(280,630) scale(0.35,0.35)"><g transform="" style="fill: rgb(255, 255, 255);">
<polygon points="0,50 50,100 100,50 50,0"/>
</g></g><g transform="translate(385,630) scale(0.35,0.35)"><g transform="" style="fill: rgb(255, 255, 255);">
<polygon points="0,50 50,100 100,50 50,0"/>
</g></g><g transform="translate(455,630) scale(0.35,0.35)"><g transform="" style="fill: rgb(255, 255, 255);">
<polygon points="0,50 50,100 100,50 50,0"/>
</g></g><g transform="translate(490,630) scale(0.35,0.35)"><g transform="" style="fill: rgb(255, 255, 255);">
<polygon points="0,50 50,100 100,50 50,0"/>
</g></g><g transform="translate(560,630) scale(0.35,0.35)"><g transform="" style="fill: rgb(255, 255, 255);">
<polygon points="0,50 50,100 100,50 50,0"/>
</g></g><g transform="translate(665,630) scale(0.35,0.35)"><g transform="" style="fill: rgb(255, 255, 255);">
<polygon points="0,50 50,100 100,50 50,0"/>
</g></g><g transform="translate(770,630) scale(0.35,0.35)"><g transform="" style="fill: rgb(255, 255, 255);">
<polygon points="0,50 50,100 100,50 50,0"/>
</g></g><g transform="translate(875,630) scale(0.35,0.35)"><g transform="" style="fill: rgb(255, 255, 255);">
<polygon points="0,50 50,100 100,50 50,0"/>
</g></g><g transform="translate(980,630) scale(0.35,0.35)"><g transform="" style="fill: rgb(255, 255, 255);">
<polygon points="0,50 50,100 100,50 50,0"/>
</g></g><g transform="translate(105,665) scale(0.35,0.35)"><g transform="" style="fill: rgb(255, 255, 255);">
<polygon points="0,50 50,100 100,50 50,0"/>
</g></g><g transform="translate(175,665) scale(0.35,0.35)"><g transform="" style="fill: rgb(255, 255, 255);">
<polygon points="0,50 50,100 100,50 50,0"/>
</g></g><g transform="translate(280,665) scale(0.35,0.35)"><g transform="" style="fill: rgb(255, 255, 255);">
<polygon points="0,50 50,100 100,50 50,0"/>
</g></g><g transform="translate(315,665) scale(0.35,0.35)"><g transform="" style="fill: rgb(255, 255, 255);">
<polygon points="0,50 50,100 100,50 50,0"/>
</g></g><g transform="translate(350,665) scale(0.35,0.35)"><g transform="" style="fill: rgb(255, 255, 255);">
<polygon points="0,50 50,100 100,50 50,0"/>
</g></g><g transform="translate(490,665) scale(0.35,0.35)"><g transform="" style="fill: rgb(255, 255, 255);">
<polygon points="0,50 50,100 100,50 50,0"/>
</g></g><g transform="translate(525,665) scale(0.35,0.35)"><g transform="" style="fill: rgb(255, 255, 255);">
<polygon points="0,50 50,100 100,50 50,0"/>
</g></g><g transform="translate(560,665) scale(0.35,0.35)"><g transform="" style="fill: rgb(255, 255, 255);">
<polygon points="0,50 50,100 100,50 50,0"/>
</g></g><g transform="translate(630,665) scale(0.35,0.35)"><g transform="" style="fill: rgb(255, 255, 255);">
<polygon points="0,50 50,100 100,50 50,0"/>
</g></g><g transform="translate(665,665) scale(0.35,0.35)"><g transform="" style="fill: rgb(255, 255, 255);">
<polygon points="0,50 50,100 100,50 50,0"/>
</g></g><g transform="translate(700,665) scale(0.35,0.35)"><g transform="" style="fill: rgb(255, 255, 255);">
<polygon points="0,50 50,100 100,50 50,0"/>
</g></g><g transform="translate(0,700) scale(0.35,0.35)"><g transform="" style="fill: rgb(255, 255, 255);">
<polygon points="0,50 50,100 100,50 50,0"/>
</g></g><g transform="translate(35,700) scale(0.35,0.35)"><g transform="" style="fill: rgb(255, 255, 255);">
<polygon points="0,50 50,100 100,50 50,0"/>
</g></g><g transform="translate(70,700) scale(0.35,0.35)"><g transform="" style="fill: rgb(255, 255, 255);">
<polygon points="0,50 50,100 100,50 50,0"/>
</g></g><g transform="translate(105,700) scale(0.35,0.35)"><g transform="" style="fill: rgb(255, 255, 255);">
<polygon points="0,50 50,100 100,50 50,0"/>
</g></g><g transform="translate(140,700) scale(0.35,0.35)"><g transform="" style="fill: rgb(255, 255, 255);">
<polygon points="0,50 50,100 100,50 50,0"/>
</g></g><g transform="translate(175,700) scale(0.35,0.35)"><g transform="" style="fill: rgb(255, 255, 255);">
<polygon points="0,50 50,100 100,50 50,0"/>
</g></g><g transform="translate(210,700) scale(0.35,0.35)"><g transform="" style="fill: rgb(255, 255, 255);">
<polygon points="0,50 50,100 100,50 50,0"/>
</g></g><g transform="translate(280,700) scale(0.35,0.35)"><g transform="" style="fill: rgb(255, 255, 255);">
<polygon points="0,50 50,100 100,50 50,0"/>
</g></g><g transform="translate(385,700) scale(0.35,0.35)"><g transform="" style="fill: rgb(255, 255, 255);">
<polygon points="0,50 50,100 100,50 50,0"/>
</g></g><g transform="translate(455,700) scale(0.35,0.35)"><g transform="" style="fill: rgb(255, 255, 255);">
<polygon points="0,50 50,100 100,50 50,0"/>
</g></g><g transform="translate(490,700) scale(0.35,0.35)"><g transform="" style="fill: rgb(255, 255, 255);">
<polygon points="0,50 50,100 100,50 50,0"/>
</g></g><g transform="translate(595,700) scale(0.35,0.35)"><g transform="" style="fill: rgb(255, 255, 255);">
<polygon points="0,50 50,100 100,50 50,0"/>
</g></g><g transform="translate(630,700) scale(0.35,0.35)"><g transform="" style="fill: rgb(255, 255, 255);">
<polygon points="0,50 50,100 100,50 50,0"/>
</g></g><g transform="translate(665,700) scale(0.35,0.35)"><g transform="" style="fill: rgb(255, 255, 255);">
<polygon points="0,50 50,100 100,50 50,0"/>
</g></g><g transform="translate(700,700) scale(0.35,0.35)"><g transform="" style="fill: rgb(255, 255, 255);">
<polygon points="0,50 50,100 100,50 50,0"/>
</g></g><g transform="translate(735,700) scale(0.35,0.35)"><g transform="" style="fill: rgb(255, 255, 255);">
<polygon points="0,50 50,100 100,50 50,0"/>
</g></g><g transform="translate(770,700) scale(0.35,0.35)"><g transform="" style="fill: rgb(255, 255, 255);">
<polygon points="0,50 50,100 100,50 50,0"/>
</g></g><g transform="translate(805,700) scale(0.35,0.35)"><g transform="" style="fill: rgb(255, 255, 255);">
<polygon points="0,50 50,100 100,50 50,0"/>
</g></g><g transform="translate(840,700) scale(0.35,0.35)"><g transform="" style="fill: rgb(255, 255, 255);">
<polygon points="0,50 50,100 100,50 50,0"/>
</g></g><g transform="translate(875,700) scale(0.35,0.35)"><g transform="" style="fill: rgb(255, 255, 255);">
<polygon points="0,50 50,100 100,50 50,0"/>
</g></g><g transform="translate(945,700) scale(0.35,0.35)"><g transform="" style="fill: rgb(255, 255, 255);">
<polygon points="0,50 50,100 100,50 50,0"/>
</g></g><g transform="translate(280,735) scale(0.35,0.35)"><g transform="" style="fill: rgb(255, 255, 255);">
<polygon points="0,50 50,100 100,50 50,0"/>
</g></g><g transform="translate(315,735) scale(0.35,0.35)"><g transform="" style="fill: rgb(255, 255, 255);">
<polygon points="0,50 50,100 100,50 50,0"/>
</g></g><g transform="translate(385,735) scale(0.35,0.35)"><g transform="" style="fill: rgb(255, 255, 255);">
<polygon points="0,50 50,100 100,50 50,0"/>
</g></g><g transform="translate(455,735) scale(0.35,0.35)"><g transform="" style="fill: rgb(255, 255, 255);">
<polygon points="0,50 50,100 100,50 50,0"/>
</g></g><g transform="translate(490,735) scale(0.35,0.35)"><g transform="" style="fill: rgb(255, 255, 255);">
<polygon points="0,50 50,100 100,50 50,0"/>
</g></g><g transform="translate(595,735) scale(0.35,0.35)"><g transform="" style="fill: rgb(255, 255, 255);">
<polygon points="0,50 50,100 100,50 50,0"/>
</g></g><g transform="translate(700,735) scale(0.35,0.35)"><g transform="" style="fill: rgb(255, 255, 255);">
<polygon points="0,50 50,100 100,50 50,0"/>
</g></g><g transform="translate(840,735) scale(0.35,0.35)"><g transform="" style="fill: rgb(255, 255, 255);">
<polygon points="0,50 50,100 100,50 50,0"/>
</g></g><g transform="translate(875,735) scale(0.35,0.35)"><g transform="" style="fill: rgb(255, 255, 255);">
<polygon points="0,50 50,100 100,50 50,0"/>
</g></g><g transform="translate(910,735) scale(0.35,0.35)"><g transform="" style="fill: rgb(255, 255, 255);">
<polygon points="0,50 50,100 100,50 50,0"/>
</g></g><g transform="translate(980,735) scale(0.35,0.35)"><g transform="" style="fill: rgb(255, 255, 255);">
<polygon points="0,50 50,100 100,50 50,0"/>
</g></g><g transform="translate(280,770) scale(0.35,0.35)"><g transform="" style="fill: rgb(255, 255, 255);">
<polygon points="0,50 50,100 100,50 50,0"/>
</g></g><g transform="translate(350,770) scale(0.35,0.35)"><g transform="" style="fill: rgb(255, 255, 255);">
<polygon points="0,50 50,100 100,50 50,0"/>
</g></g><g transform="translate(385,770) scale(0.35,0.35)"><g transform="" style="fill: rgb(255, 255, 255);">
<polygon points="0,50 50,100 100,50 50,0"/>
</g></g><g transform="translate(420,770) scale(0.35,0.35)"><g transform="" style="fill: rgb(255, 255, 255);">
<polygon points="0,50 50,100 100,50 50,0"/>
</g></g><g transform="translate(525,770) scale(0.35,0.35)"><g transform="" style="fill: rgb(255, 255, 255);">
<polygon points="0,50 50,100 100,50 50,0"/>
</g></g><g transform="translate(700,770) scale(0.35,0.35)"><g transform="" style="fill: rgb(255, 255, 255);">
<polygon points="0,50 50,100 100,50 50,0"/>
</g></g><g transform="translate(770,770) scale(0.35,0.35)"><g transform="" style="fill: rgb(255, 255, 255);">
<polygon points="0,50 50,100 100,50 50,0"/>
</g></g><g transform="translate(840,770) scale(0.35,0.35)"><g transform="" style="fill: rgb(255, 255, 255);">
<polygon points="0,50 50,100 100,50 50,0"/>
</g></g><g transform="translate(980,770) scale(0.35,0.35)"><g transform="" style="fill: rgb(255, 255, 255);">
<polygon points="0,50 50,100 100,50 50,0"/>
</g></g><g transform="translate(385,805) scale(0.35,0.35)"><g transform="" style="fill: rgb(255, 255, 255);">
<polygon points="0,50 50,100 100,50 50,0"/>
</g></g><g transform="translate(420,805) scale(0.35,0.35)"><g transform="" style="fill: rgb(255, 255, 255);">
<polygon points="0,50 50,100 100,50 50,0"/>
</g></g><g transform="translate(455,805) scale(0.35,0.35)"><g transform="" style="fill: rgb(255, 255, 255);">
<polygon points="0,50 50,100 100,50 50,0"/>
</g></g><g transform="translate(595,805) scale(0.35,0.35)"><g transform="" style="fill: rgb(255, 255, 255);">
<polygon points="0,50 50,100 100,50 50,0"/>
</g></g><g transform="translate(665,805) scale(0.35,0.35)"><g transform="" style="fill: rgb(255, 255, 255);">
<polygon points="0,50 50,100 100,50 50,0"/>
</g></g><g transform="translate(700,805) scale(0.35,0.35)"><g transform="" style="fill: rgb(255, 255, 255);">
<polygon points="0,50 50,100 100,50 50,0"/>
</g></g><g transform="translate(840,805) scale(0.35,0.35)"><g transform="" style="fill: rgb(255, 255, 255);">
<polygon points="0,50 50,100 100,50 50,0"/>
</g></g><g transform="translate(945,805) scale(0.35,0.35)"><g transform="" style="fill: rgb(255, 255, 255);">
<polygon points="0,50 50,100 100,50 50,0"/>
</g></g><g transform="translate(980,805) scale(0.35,0.35)"><g transform="" style="fill: rgb(255, 255, 255);">
<polygon points="0,50 50,100 100,50 50,0"/>
</g></g><g transform="translate(315,840) scale(0.35,0.35)"><g transform="" style="fill: rgb(255, 255, 255);">
<polygon points="0,50 50,100 100,50 50,0"/>
</g></g><g transform="translate(350,840) scale(0.35,0.35)"><g transform="" style="fill: rgb(255, 255, 255);">
<polygon points="0,50 50,100 100,50 50,0"/>
</g></g><g transform="translate(420,840) scale(0.35,0.35)"><g transform="" style="fill: rgb(255, 255, 255);">
<polygon points="0,50 50,100 100,50 50,0"/>
</g></g><g transform="translate(455,840) scale(0.35,0.35)"><g transform="" style="fill: rgb(255, 255, 255);">
<polygon points="0,50 50,100 100,50 50,0"/>
</g></g><g transform="translate(525,840) scale(0.35,0.35)"><g transform="" style="fill: rgb(255, 255, 255);">
<polygon points="0,50 50,100 100,50 50,0"/>
</g></g><g transform="translate(560,840) scale(0.35,0.35)"><g transform="" style="fill: rgb(255, 255, 255);">
<polygon points="0,50 50,100 100,50 50,0"/>
</g></g><g transform="translate(595,840) scale(0.35,0.35)"><g transform="" style="fill: rgb(255, 255, 255);">
<polygon points="0,50 50,100 100,50 50,0"/>
</g></g><g transform="translate(665,840) scale(0.35,0.35)"><g transform="" style="fill: rgb(255, 255, 255);">
<polygon points="0,50 50,100 100,50 50,0"/>
</g></g><g transform="translate(700,840) scale(0.35,0.35)"><g transform="" style="fill: rgb(255, 255, 255);">
<polygon points="0,50 50,100 100,50 50,0"/>
</g></g><g transform="translate(735,840) scale(0.35,0.35)"><g transform="" style="fill: rgb(255, 255, 255);">
<polygon points="0,50 50,100 100,50 50,0"/>
</g></g><g transform="translate(770,840) scale(0.35,0.35)"><g transform="" style="fill: rgb(255, 255, 255);">
<polygon points="0,50 50,100 100,50 50,0"/>
</g></g><g transform="translate(805,840) scale(0.35,0.35)"><g transform="" style="fill: rgb(255, 255, 255);">
<polygon points="0,50 50,100 100,50 50,0"/>
</g></g><g transform="translate(840,840) scale(0.35,0.35)"><g transform="" style="fill: rgb(255, 255, 255);">
<polygon points="0,50 50,100 100,50 50,0"/>
</g></g><g transform="translate(875,840) scale(0.35,0.35)"><g transform="" style="fill: rgb(255, 255, 255);">
<polygon points="0,50 50,100 100,50 50,0"/>
</g></g><g transform="translate(945,840) scale(0.35,0.35)"><g transform="" style="fill: rgb(255, 255, 255);">
<polygon points="0,50 50,100 100,50 50,0"/>
</g></g><g transform="translate(315,875) scale(0.35,0.35)"><g transform="" style="fill: rgb(255, 255, 255);">
<polygon points="0,50 50,100 100,50 50,0"/>
</g></g><g transform="translate(385,875) scale(0.35,0.35)"><g transform="" style="fill: rgb(255, 255, 255);">
<polygon points="0,50 50,100 100,50 50,0"/>
</g></g><g transform="translate(560,875) scale(0.35,0.35)"><g transform="" style="fill: rgb(255, 255, 255);">
<polygon points="0,50 50,100 100,50 50,0"/>
</g></g><g transform="translate(700,875) scale(0.35,0.35)"><g transform="" style="fill: rgb(255, 255, 255);">
<polygon points="0,50 50,100 100,50 50,0"/>
</g></g><g transform="translate(735,875) scale(0.35,0.35)"><g transform="" style="fill: rgb(255, 255, 255);">
<polygon points="0,50 50,100 100,50 50,0"/>
</g></g><g transform="translate(840,875) scale(0.35,0.35)"><g transform="" style="fill: rgb(255, 255, 255);">
<polygon points="0,50 50,100 100,50 50,0"/>
</g></g><g transform="translate(875,875) scale(0.35,0.35)"><g transform="" style="fill: rgb(255, 255, 255);">
<polygon points="0,50 50,100 100,50 50,0"/>
</g></g><g transform="translate(910,875) scale(0.35,0.35)"><g transform="" style="fill: rgb(255, 255, 255);">
<polygon points="0,50 50,100 100,50 50,0"/>
</g></g><g transform="translate(945,875) scale(0.35,0.35)"><g transform="" style="fill: rgb(255, 255, 255);">
<polygon points="0,50 50,100 100,50 50,0"/>
</g></g><g transform="translate(280,910) scale(0.35,0.35)"><g transform="" style="fill: rgb(255, 255, 255);">
<polygon points="0,50 50,100 100,50 50,0"/>
</g></g><g transform="translate(315,910) scale(0.35,0.35)"><g transform="" style="fill: rgb(255, 255, 255);">
<polygon points="0,50 50,100 100,50 50,0"/>
</g></g><g transform="translate(350,910) scale(0.35,0.35)"><g transform="" style="fill: rgb(255, 255, 255);">
<polygon points="0,50 50,100 100,50 50,0"/>
</g></g><g transform="translate(420,910) scale(0.35,0.35)"><g transform="" style="fill: rgb(255, 255, 255);">
<polygon points="0,50 50,100 100,50 50,0"/>
</g></g><g transform="translate(490,910) scale(0.35,0.35)"><g transform="" style="fill: rgb(255, 255, 255);">
<polygon points="0,50 50,100 100,50 50,0"/>
</g></g><g transform="translate(560,910) scale(0.35,0.35)"><g transform="" style="fill: rgb(255, 255, 255);">
<polygon points="0,50 50,100 100,50 50,0"/>
</g></g><g transform="translate(595,910) scale(0.35,0.35)"><g transform="" style="fill: rgb(255, 255, 255);">
<polygon points="0,50 50,100 100,50 50,0"/>
</g></g><g transform="translate(630,910) scale(0.35,0.35)"><g transform="" style="fill: rgb(255, 255, 255);">
<polygon points="0,50 50,100 100,50 50,0"/>
</g></g><g transform="translate(735,910) scale(0.35,0.35)"><g transform="" style="fill: rgb(255, 255, 255);">
<polygon points="0,50 50,100 100,50 50,0"/>
</g></g><g transform="translate(840,910) scale(0.35,0.35)"><g transform="" style="fill: rgb(255, 255, 255);">
<polygon points="0,50 50,100 100,50 50,0"/>
</g></g><g transform="translate(945,910) scale(0.35,0.35)"><g transform="" style="fill: rgb(255, 255, 255);">
<polygon points="0,50 50,100 100,50 50,0"/>
</g></g><g transform="translate(980,910) scale(0.35,0.35)"><g transform="" style="fill: rgb(255, 255, 255);">
<polygon points="0,50 50,100 100,50 50,0"/>
</g></g><g transform="translate(315,945) scale(0.35,0.35)"><g transform="" style="fill: rgb(255, 255, 255);">
<polygon points="0,50 50,100 100,50 50,0"/>
</g></g><g transform="translate(385,945) scale(0.35,0.35)"><g transform="" style="fill: rgb(255, 255, 255);">
<polygon points="0,50 50,100 100,50 50,0"/>
</g></g><g transform="translate(420,945) scale(0.35,0.35)"><g transform="" style="fill: rgb(255, 255, 255);">
<polygon points="0,50 50,100 100,50 50,0"/>
</g></g><g transform="translate(525,945) scale(0.35,0.35)"><g transform="" style="fill: rgb(255, 255, 255);">
<polygon points="0,50 50,100 100,50 50,0"/>
</g></g><g transform="translate(560,945) scale(0.35,0.35)"><g transform="" style="fill: rgb(255, 255, 255);">
<polygon points="0,50 50,100 100,50 50,0"/>
</g></g><g transform="translate(630,945) scale(0.35,0.35)"><g transform="" style="fill: rgb(255, 255, 255);">
<polygon points="0,50 50,100 100,50 50,0"/>
</g></g><g transform="translate(700,945) scale(0.35,0.35)"><g transform="" style="fill: rgb(255, 255, 255);">
<polygon points="0,50 50,100 100,50 50,0"/>
</g></g><g transform="translate(770,945) scale(0.35,0.35)"><g transform="" style="fill: rgb(255, 255, 255);">
<polygon points="0,50 50,100 100,50 50,0"/>
</g></g><g transform="translate(805,945) scale(0.35,0.35)"><g transform="" style="fill: rgb(255, 255, 255);">
<polygon points="0,50 50,100 100,50 50,0"/>
</g></g><g transform="translate(840,945) scale(0.35,0.35)"><g transform="" style="fill: rgb(255, 255, 255);">
<polygon points="0,50 50,100 100,50 50,0"/>
</g></g><g transform="translate(875,945) scale(0.35,0.35)"><g transform="" style="fill: rgb(255, 255, 255);">
<polygon points="0,50 50,100 100,50 50,0"/>
</g></g><g transform="translate(280,980) scale(0.35,0.35)"><g transform="" style="fill: rgb(255, 255, 255);">
<polygon points="0,50 50,100 100,50 50,0"/>
</g></g><g transform="translate(455,980) scale(0.35,0.35)"><g transform="" style="fill: rgb(255, 255, 255);">
<polygon points="0,50 50,100 100,50 50,0"/>
</g></g><g transform="translate(490,980) scale(0.35,0.35)"><g transform="" style="fill: rgb(255, 255, 255);">
<polygon points="0,50 50,100 100,50 50,0"/>
</g></g><g transform="translate(595,980) scale(0.35,0.35)"><g transform="" style="fill: rgb(255, 255, 255);">
<polygon points="0,50 50,100 100,50 50,0"/>
</g></g><g transform="translate(630,980) scale(0.35,0.35)"><g transform="" style="fill: rgb(255, 255, 255);">
<polygon points="0,50 50,100 100,50 50,0"/>
</g></g><g transform="translate(665,980) scale(0.35,0.35)"><g transform="" style="fill: rgb(255, 255, 255);">
<polygon points="0,50 50,100 100,50 50,0"/>
</g></g><g transform="translate(700,980) scale(0.35,0.35)"><g transform="" style="fill: rgb(255, 255, 255);">
<polygon points="0,50 50,100 100,50 50,0"/>
</g></g><g transform="translate(735,980) scale(0.35,0.35)"><g transform="" style="fill: rgb(255, 255, 255);">
<polygon points="0,50 50,100 100,50 50,0"/>
</g></g><g transform="translate(770,980) scale(0.35,0.35)"><g transform="" style="fill: rgb(255, 255, 255);">
<polygon points="0,50 50,100 100,50 50,0"/>
</g></g><g transform="translate(805,980) scale(0.35,0.35)"><g transform="" style="fill: rgb(255, 255, 255);">
<polygon points="0,50 50,100 100,50 50,0"/>
</g></g><g transform="translate(840,980) scale(0.35,0.35)"><g transform="" style="fill: rgb(255, 255, 255);">
<polygon points="0,50 50,100 100,50 50,0"/>
</g></g><g transform="translate(980,980) scale(0.35,0.35)"><g transform="" style="fill: rgb(255, 255, 255);">
<polygon points="0,50 50,100 100,50 50,0"/>
</g></g><g transform="translate(0,0) scale(2.45, 2.45)"><g transform="" style="fill: rgb(255, 255, 255);">
<g>
	<path style="fill:none;" d="M65.859,15.008H34.141c-4.082,0-7.869,1.258-10.979,3.398c-2.419,1.665-4.428,3.864-5.848,6.421
		C15.838,27.484,15,30.526,15,33.758v32.471c0,10.344,8.586,18.76,19.145,18.76L50,84.992l15.855-0.004
		C76.414,84.988,85,76.572,85,66.229V33.758C85,23.419,76.414,15.008,65.859,15.008z"/>
	<path d="M65.859,0.008H34.141h0C18.683,0.008,5.587,10.221,1.4,24.18c-0.433,1.444-0.771,2.928-1.006,4.445
		C0.135,30.299,0,32.013,0,33.758v32.471c0,18.619,15.32,33.76,34.141,33.76L50,99.992l15.859-0.004
		c18.82,0,34.141-15.141,34.141-33.76V33.758C100,15.148,84.68,0.008,65.859,0.008z M85,66.229c0,10.344-8.586,18.76-19.145,18.76
		L50,84.992l-15.855-0.004C23.586,84.988,15,76.572,15,66.229V33.758c0-3.231,0.838-6.273,2.313-8.931
		c1.42-2.557,3.429-4.756,5.848-6.421c3.11-2.141,6.897-3.398,10.979-3.398h31.719C76.414,15.008,85,23.419,85,33.758V66.229z"/>
</g>
</g></g><g transform="translate(770,0) scale(2.45, 2.45)"><g transform="" style="fill: rgb(255, 255, 255);">
<g>
	<path style="fill:none;" d="M65.859,15.008H34.141c-4.082,0-7.869,1.258-10.979,3.398c-2.419,1.665-4.428,3.864-5.848,6.421
		C15.838,27.484,15,30.526,15,33.758v32.471c0,10.344,8.586,18.76,19.145,18.76L50,84.992l15.855-0.004
		C76.414,84.988,85,76.572,85,66.229V33.758C85,23.419,76.414,15.008,65.859,15.008z"/>
	<path d="M65.859,0.008H34.141h0C18.683,0.008,5.587,10.221,1.4,24.18c-0.433,1.444-0.771,2.928-1.006,4.445
		C0.135,30.299,0,32.013,0,33.758v32.471c0,18.619,15.32,33.76,34.141,33.76L50,99.992l15.859-0.004
		c18.82,0,34.141-15.141,34.141-33.76V33.758C100,15.148,84.68,0.008,65.859,0.008z M85,66.229c0,10.344-8.586,18.76-19.145,18.76
		L50,84.992l-15.855-0.004C23.586,84.988,15,76.572,15,66.229V33.758c0-3.231,0.838-6.273,2.313-8.931
		c1.42-2.557,3.429-4.756,5.848-6.421c3.11-2.141,6.897-3.398,10.979-3.398h31.719C76.414,15.008,85,23.419,85,33.758V66.229z"/>
</g>
</g></g><g transform="translate(0,770) scale(2.45, 2.45)"><g transform="" style="fill: rgb(255, 255, 255);">
<g>
	<path style="fill:none;" d="M65.859,15.008H34.141c-4.082,0-7.869,1.258-10.979,3.398c-2.419,1.665-4.428,3.864-5.848,6.421
		C15.838,27.484,15,30.526,15,33.758v32.471c0,10.344,8.586,18.76,19.145,18.76L50,84.992l15.855-0.004
		C76.414,84.988,85,76.572,85,66.229V33.758C85,23.419,76.414,15.008,65.859,15.008z"/>
	<path d="M65.859,0.008H34.141h0C18.683,0.008,5.587,10.221,1.4,24.18c-0.433,1.444-0.771,2.928-1.006,4.445
		C0.135,30.299,0,32.013,0,33.758v32.471c0,18.619,15.32,33.76,34.141,33.76L50,99.992l15.859-0.004
		c18.82,0,34.141-15.141,34.141-33.76V33.758C100,15.148,84.68,0.008,65.859,0.008z M85,66.229c0,10.344-8.586,18.76-19.145,18.76
		L50,84.992l-15.855-0.004C23.586,84.988,15,76.572,15,66.229V33.758c0-3.231,0.838-6.273,2.313-8.931
		c1.42-2.557,3.429-4.756,5.848-6.421c3.11-2.141,6.897-3.398,10.979-3.398h31.719C76.414,15.008,85,23.419,85,33.758V66.229z"/>
</g>
</g></g><g transform="translate(70,70) scale(1.05, 1.05)"><g transform=" translate(0,100) scale(1,-1) " style="fill: rgb(255, 255, 255);">
<g>
</g>
<path d="M72.744-0.021H27.23c-2.341,0-4.612,0.297-6.771,0.875C15.679,2.11,11.418,4.648,8.04,8.09
	c-0.617,0.621-1.206,1.284-1.752,1.96c-3.883,4.767-6.21,10.903-6.21,17.561L0.05,99.979h72.694
	c14.971,0,27.138-12.397,27.138-27.63V27.625v-0.014l0.168-27.617C100.05-0.006,82.107-0.021,72.744-0.021z"/>
</g></g><g transform="translate(840,70) scale(1.05, 1.05)"><g transform="" style="fill: rgb(255, 255, 255);">
<g>
</g>
<path d="M72.744-0.021H27.23c-2.341,0-4.612,0.297-6.771,0.875C15.679,2.11,11.418,4.648,8.04,8.09
	c-0.617,0.621-1.206,1.284-1.752,1.96c-3.883,4.767-6.21,10.903-6.21,17.561L0.05,99.979h72.694
	c14.971,0,27.138-12.397,27.138-27.63V27.625v-0.014l0.168-27.617C100.05-0.006,82.107-0.021,72.744-0.021z"/>
</g></g><g transform="translate(70,840) scale(1.05, 1.05)"><g transform="" style="fill: rgb(255, 255, 255);">
<g>
</g>
<path d="M72.744-0.021H27.23c-2.341,0-4.612,0.297-6.771,0.875C15.679,2.11,11.418,4.648,8.04,8.09
	c-0.617,0.621-1.206,1.284-1.752,1.96c-3.883,4.767-6.21,10.903-6.21,17.561L0.05,99.979h72.694
	c14.971,0,27.138-12.397,27.138-27.63V27.625v-0.014l0.168-27.617C100.05-0.006,82.107-0.021,72.744-0.021z"/>
</g></g></g></mask></defs></g><rect x="0" y="0" width="1015" height="1015" fill="url(#grad)" mask="url(#gmask)" /></g></svg>